<?xml version="1.0" encoding="iso-8859-1"?>
<!-- Generator: Adobe Illustrator 19.0.0, SVG Export Plug-In . SVG Version: 6.00 Build 0)  -->
<svg version="1.1" id="Capa_1" xmlns="http://www.w3.org/2000/svg" xmlns:xlink="http://www.w3.org/1999/xlink" x="0px" y="0px"
	 viewBox="0 0 512 512" style="enable-background:new 0 0 512 512;" xml:space="preserve">
<path style="fill:#292D30;" d="M477.489,510.041c-6.361,0-12.486-3.51-15.529-9.584l-93.682-186.983l-93.681,186.982
	c-4.294,8.57-14.723,12.035-23.29,7.742c-8.57-4.293-12.036-14.721-7.742-23.29l109.197-217.951
	c2.942-5.872,8.947-9.581,15.515-9.581c6.569,0,12.574,3.708,15.515,9.581l109.197,217.951c4.293,8.57,0.827,18.996-7.741,23.29
	C482.755,509.449,480.102,510.041,477.489,510.041z"/>
<path style="fill:#E4F2F6;" d="M512,324.816V122.03c0-6.344-5.143-11.487-11.487-11.487H236.044
	c-6.344,0-11.487,5.143-11.487,11.487v202.785c0,6.344,5.143,11.487,11.487,11.487h264.469C506.857,336.304,512,331.16,512,324.816z
	"/>
<path style="fill:#C8E6EB;" d="M500.513,110.543H368.279v225.761h132.234c6.344,0,11.487-5.143,11.487-11.487V122.03
	C512,115.686,506.857,110.543,500.513,110.543z"/>
<path style="fill:#FF3C3C;" d="M462.047,229.805c0-6.389-5.18-11.569-11.569-11.569c-6.39,0-11.569,5.18-11.569,11.569v4.464
	l-28.353-28.353c-2.252-2.253-5.322-3.483-8.521-3.384l-50.639,1.489l-27.558-27.557c-2.977-2.978-7.334-4.102-11.384-2.936
	l-48.268,13.908c-6.14,1.769-9.683,8.18-7.914,14.321c1.77,6.14,8.18,9.683,14.321,7.913l41.709-12.018l26.262,26.261
	c2.252,2.252,5.324,3.481,8.521,3.384l50.639-1.489l24.822,24.822h-4.463c-6.39,0-11.569,5.18-11.569,11.569
	c0,6.39,5.18,11.57,11.569,11.57h32.395c6.448,0,11.569-5.272,11.569-11.57l0,0v-32.396H462.047z"/>
<path style="fill:#DC1428;" d="M450.478,218.236c-6.39,0-11.569,5.18-11.569,11.569v4.464l-28.353-28.353
	c-2.252-2.252-5.322-3.482-8.521-3.384l-33.755,0.993v23.15l29.445-0.865l24.822,24.821h-4.463c-6.389,0-11.569,5.18-11.569,11.569
	c0,6.389,5.18,11.569,11.569,11.569h32.395c6.447,0,11.569-5.272,11.569-11.569v-32.395
	C462.047,223.417,456.867,218.236,450.478,218.236z"/>
<path style="fill:#414B82;" d="M153.941,276.674v208.301c0,13.844,11.223,25.067,25.067,25.067
	c13.844,0,25.067-11.222,25.067-25.067V276.674H153.941z"/>
<path style="fill:#5F6E9B;" d="M93.431,276.674v208.301c0,13.844,11.223,25.067,25.067,25.067s25.067-11.222,25.067-25.067V276.674
	H93.431z"/>
<path style="fill:#414B82;" d="M285.168,106.898c6.185-2.28,10.731-7.624,11.99-14.096c1.259-6.471-0.953-13.128-5.83-17.562
	L216.555,7.302c-7.707-7.004-19.638-6.435-26.643,1.276c-7.005,7.71-6.434,19.639,1.276,26.643l51.766,47.036l-61.365,23.07h-65.67
	L54.552,81.815l51.766-47.036c7.71-7.005,8.281-18.934,1.276-26.643C100.589,0.424,88.657-0.144,80.95,6.86L6.178,74.798
	C1.3,79.231-0.911,85.889,0.347,92.359c1.259,6.471,5.804,11.814,11.99,14.096l81.094,29.901v148.262h110.642V136.799
	L285.168,106.898z"/>
<path style="fill:#1E2D64;" d="M285.168,106.898c6.185-2.28,10.731-7.624,11.99-14.096c1.259-6.471-0.953-13.128-5.83-17.562
	L216.555,7.302c-7.707-7.004-19.638-6.435-26.643,1.276c-7.005,7.71-6.434,19.639,1.276,26.643l51.766,47.036l-61.365,23.07h-32.839
	v179.291h55.325V136.799L285.168,106.898z"/>
<polygon style="fill:#FFFFFF;" points="115.918,105.326 148.748,191.485 181.587,105.326 "/>
<path style="fill:#FF3C3C;" d="M163.029,134.656l-7.294-13.265l6.286-11.432c1.143-2.079-0.363-4.633-2.739-4.633h-21.072
	c-2.372,0-3.884,2.549-2.74,4.633l6.307,11.471l-7.273,13.228c-1.008,1.832-1.335,3.96-0.926,6.009l4.486,22.774l10.683,28.042
	l10.693-28.047l4.511-22.768C164.363,138.618,164.036,136.489,163.029,134.656z"/>
<path style="fill:#DC1428;" d="M163.029,134.656l-7.294-13.265l6.286-11.432c1.143-2.079-0.363-4.633-2.739-4.633h-10.534v86.14
	v0.018l10.693-28.048l4.511-22.767C164.363,138.618,164.036,136.489,163.029,134.656z"/>
<g>
	<circle style="fill:#FFB69E;" cx="148.751" cy="46.364" r="43.294"/>
	<path style="fill:#FFB69E;" d="M106.318,34.779c7.71-7.005,8.281-18.934,1.276-26.643C100.589,0.424,88.657-0.144,80.95,6.86
		L106.318,34.779z"/>
</g>
<polygon style="fill:#FFFFFF;" points="99.181,41.288 73.801,13.354 80.95,6.859 106.318,34.779 "/>
<path style="fill:#FFB69E;" d="M191.187,35.221c-7.71-7.005-8.281-18.934-1.276-26.643c7.005-7.711,18.936-8.279,26.643-1.276
	L191.187,35.221z"/>
<polygon style="fill:#FFFFFF;" points="198.324,41.731 223.703,13.798 216.554,7.302 191.187,35.221 "/>
<rect x="163.489" y="168.151" style="fill:#414B82;" width="26.78" height="8.259"/>
<g>
</g>
<g>
</g>
<g>
</g>
<g>
</g>
<g>
</g>
<g>
</g>
<g>
</g>
<g>
</g>
<g>
</g>
<g>
</g>
<g>
</g>
<g>
</g>
<g>
</g>
<g>
</g>
<g>
</g>
</svg>
