<?xml version="1.0" encoding="iso-8859-1"?>
<!-- Generator: Adobe Illustrator 19.0.0, SVG Export Plug-In . SVG Version: 6.00 Build 0)  -->
<svg version="1.1" id="Capa_1" xmlns="http://www.w3.org/2000/svg" xmlns:xlink="http://www.w3.org/1999/xlink" x="0px" y="0px"
	 viewBox="0 0 512 512" style="enable-background:new 0 0 512 512;" xml:space="preserve">
<circle style="fill:#6FB1E1;" cx="256" cy="256" r="256"/>
<rect x="104.2" y="83.58" style="fill:#FDFEFF;" width="264.12" height="344.84"/>
<g>
	<rect x="170.908" y="116.08" style="fill:#D2D2D4;" width="176.44" height="6.156"/>
	<rect x="170.908" y="132.48" style="fill:#D2D2D4;" width="176.44" height="6.156"/>
	<rect x="170.908" y="169.08" style="fill:#D2D2D4;" width="176.44" height="6.156"/>
	<rect x="170.908" y="185.48" style="fill:#D2D2D4;" width="176.44" height="6.156"/>
	<rect x="170.908" y="222.08" style="fill:#D2D2D4;" width="176.44" height="6.156"/>
	<rect x="170.908" y="238.48" style="fill:#D2D2D4;" width="176.44" height="6.156"/>
	<rect x="170.908" y="275.052" style="fill:#D2D2D4;" width="176.44" height="6.156"/>
	<rect x="170.908" y="291.472" style="fill:#D2D2D4;" width="176.44" height="6.156"/>
	<rect x="170.908" y="328.04" style="fill:#D2D2D4;" width="176.44" height="6.156"/>
	<rect x="170.908" y="344.48" style="fill:#D2D2D4;" width="176.44" height="6.156"/>
</g>
<g>
	
		<rect x="396.133" y="233.305" transform="matrix(-0.7071 -0.7071 0.7071 -0.7071 510.7774 704.2737)" style="fill:#656D7A;" width="10.232" height="26.092"/>
	
		<rect x="252.21" y="233.333" transform="matrix(0.7071 -0.7071 0.7071 0.7071 -98.8469 254.1199)" style="fill:#656D7A;" width="10.232" height="26.092"/>
</g>
<g>
	<path style="fill:#F5EA07;" d="M431.804,259.828l-5.2,5.248l-44.06-44.016l5.248-5.248c7.368-7.368,19.36-7.368,26.724,0
		l17.288,17.288C439.22,240.516,439.22,252.46,431.804,259.828z"/>
	<path style="fill:#F5EA07;" d="M270.772,215.812l5.248,5.248l-44.06,44.016l-5.2-5.248c-7.416-7.368-7.416-19.312,0-26.728
		l17.288-17.288C251.464,208.444,263.408,208.444,270.772,215.812z"/>
</g>
<rect x="319.12" y="209.64" style="fill:#4D535F;" width="20.316" height="20.248"/>
<g>
	<rect x="309.32" y="201.48" style="fill:#656D7A;" width="39.912" height="12.728"/>
	<polygon style="fill:#656D7A;" points="380.808,418.516 390.412,413.744 381.456,383.912 362.44,393.36 	"/>
	<circle style="fill:#656D7A;" cx="387.28" cy="419.12" r="9.32"/>
	<polygon style="fill:#656D7A;" points="277.768,418.516 268.164,413.744 277.116,383.912 296.132,393.36 	"/>
	<circle style="fill:#656D7A;" cx="271.284" cy="419.12" r="9.32"/>
</g>
<circle style="fill:#E8BB20;" cx="329.28" cy="316.56" r="93.916"/>
<circle style="fill:#FDFEFF;" cx="329.28" cy="316.56" r="82.224"/>
<g>
	<path style="fill:#4D535F;" d="M324.396,378.704L324.396,378.704c1.62-7.492,2.436-15.14,2.436-22.804v-56.572h4.916V355.9
		c0,7.664,0.816,15.304,2.432,22.792l0.004,0.012l-4.892,6.636L324.396,378.704z"/>
	<path style="fill:#4D535F;" d="M271.032,311.996L271.032,311.996c7.016,1.516,14.172,2.28,21.348,2.28h52.956v4.6H292.38
		c-7.172,0-14.324,0.764-21.336,2.276l-0.012,0.004l-6.212-4.576L271.032,311.996z"/>
</g>
<circle style="fill:#656D7A;" cx="329.28" cy="316.56" r="7.66"/>
<path style="fill:#F1592F;" d="M320.508,325.356c-0.78-0.78-0.78-2.044,0-2.824l51.604-51.608c0.78-0.78,2.044-0.78,2.824,0
	s0.78,2.044,0,2.824l-51.604,51.608C322.552,326.136,321.288,326.136,320.508,325.356z"/>
<circle style="fill:#D64331;" cx="329.28" cy="316.56" r="4.684"/>
<g>
	<circle style="fill:#656D7A;" cx="329.28" cy="242.2" r="3.44"/>
	<circle style="fill:#656D7A;" cx="329.28" cy="390.96" r="3.44"/>
	<circle style="fill:#656D7A;" cx="292.08" cy="252.16" r="3.44"/>
	<circle style="fill:#656D7A;" cx="366.48" cy="381" r="3.44"/>
	<circle style="fill:#656D7A;" cx="264.88" cy="279.384" r="3.44"/>
	<circle style="fill:#656D7A;" cx="393.72" cy="353.76" r="3.44"/>
	<circle style="fill:#656D7A;" cx="254.908" cy="316.56" r="3.44"/>
	<circle style="fill:#656D7A;" cx="403.68" cy="316.56" r="3.44"/>
	<circle style="fill:#656D7A;" cx="264.88" cy="353.76" r="3.44"/>
	<circle style="fill:#656D7A;" cx="393.72" cy="279.384" r="3.44"/>
	<circle style="fill:#656D7A;" cx="292.08" cy="381" r="3.44"/>
	<circle style="fill:#656D7A;" cx="366.48" cy="252.16" r="3.44"/>
</g>
<g>
	
		<rect x="128.76" y="116.76" style="fill:none;stroke:#656D7A;stroke-width:1.5;stroke-linecap:round;stroke-linejoin:round;stroke-miterlimit:10;" width="21.22" height="21.22"/>
	
		<polyline style="fill:none;stroke:#F1592F;stroke-width:1.5;stroke-linecap:round;stroke-linejoin:round;stroke-miterlimit:10;" points="
		138.32,124.924 144.8,131.404 157.044,119.156 	"/>
	
		<rect x="128.76" y="169.76" style="fill:none;stroke:#656D7A;stroke-width:1.5;stroke-linecap:round;stroke-linejoin:round;stroke-miterlimit:10;" width="21.22" height="21.22"/>
	
		<polyline style="fill:none;stroke:#F1592F;stroke-width:1.5;stroke-linecap:round;stroke-linejoin:round;stroke-miterlimit:10;" points="
		138.32,177.916 144.8,184.396 157.044,172.148 	"/>
	
		<rect x="128.76" y="222.74" style="fill:none;stroke:#656D7A;stroke-width:1.5;stroke-linecap:round;stroke-linejoin:round;stroke-miterlimit:10;" width="21.22" height="21.22"/>
	
		<polyline style="fill:none;stroke:#F1592F;stroke-width:1.5;stroke-linecap:round;stroke-linejoin:round;stroke-miterlimit:10;" points="
		138.32,230.904 144.8,237.384 157.044,225.14 	"/>
	
		<rect x="128.76" y="275.732" style="fill:none;stroke:#656D7A;stroke-width:1.5;stroke-linecap:round;stroke-linejoin:round;stroke-miterlimit:10;" width="21.22" height="21.22"/>
	
		<polyline style="fill:none;stroke:#F1592F;stroke-width:1.5;stroke-linecap:round;stroke-linejoin:round;stroke-miterlimit:10;" points="
		138.32,283.896 144.8,290.376 157.044,278.132 	"/>
	
		<rect x="128.76" y="328.72" style="fill:none;stroke:#656D7A;stroke-width:1.5;stroke-linecap:round;stroke-linejoin:round;stroke-miterlimit:10;" width="21.22" height="21.22"/>
	
		<polyline style="fill:none;stroke:#F1592F;stroke-width:1.5;stroke-linecap:round;stroke-linejoin:round;stroke-miterlimit:10;" points="
		138.32,336.888 144.8,343.368 157.044,331.12 	"/>
</g>
<g>
</g>
<g>
</g>
<g>
</g>
<g>
</g>
<g>
</g>
<g>
</g>
<g>
</g>
<g>
</g>
<g>
</g>
<g>
</g>
<g>
</g>
<g>
</g>
<g>
</g>
<g>
</g>
<g>
</g>
</svg>
