<?xml version="1.0" encoding="iso-8859-1"?>
<!-- Generator: Adobe Illustrator 19.0.0, SVG Export Plug-In . SVG Version: 6.00 Build 0)  -->
<svg version="1.1" id="Capa_1" xmlns="http://www.w3.org/2000/svg" xmlns:xlink="http://www.w3.org/1999/xlink" x="0px" y="0px"
	 viewBox="0 0 512 512" style="enable-background:new 0 0 512 512;" xml:space="preserve">
<circle style="fill:#7EC359;" cx="256" cy="256" r="256"/>
<rect x="76.72" y="32" style="fill:#FDFEFF;" width="358.56" height="448"/>
<rect x="114.764" y="72.72" style="fill:#70B1E1;" width="282.48" height="79.444"/>
<g>
	<path style="fill:#FDFEFF;" d="M140.988,132.648V92.224h17.18c4.32,0,7.46,0.364,9.416,1.088c1.956,0.728,3.524,2.016,4.7,3.876
		c1.176,1.856,1.764,3.98,1.764,6.368c0,3.032-0.892,5.536-2.676,7.512s-4.448,3.22-7.996,3.736c1.764,1.028,3.22,2.16,4.372,3.392
		c1.148,1.232,2.696,3.42,4.648,6.564l4.936,7.888h-9.76l-5.9-8.796c-2.096-3.144-3.528-5.124-4.3-5.944s-1.592-1.38-2.456-1.684
		s-2.232-0.456-4.108-0.456h-1.656v16.876h-8.164V132.648z M149.152,109.32h6.04c3.916,0,6.36-0.164,7.336-0.496
		s1.736-0.9,2.288-1.708s0.828-1.82,0.828-3.032c0-1.36-0.364-2.46-1.088-3.296c-0.728-0.836-1.752-1.364-3.076-1.584
		c-0.66-0.092-2.648-0.136-5.956-0.136h-6.368v10.252H149.152z"/>
	<path style="fill:#FDFEFF;" d="M181.744,132.648V92.224h29.972v6.84h-21.812v8.96H210.2v6.812h-20.296v11.004h22.584v6.812h-30.744
		V132.648z"/>
	<path style="fill:#FDFEFF;" d="M219.408,132.648V92.224h13.096c4.964,0,8.2,0.204,9.708,0.608c2.316,0.608,4.256,1.924,5.82,3.956
		c1.564,2.032,2.344,4.656,2.344,7.872c0,2.48-0.452,4.568-1.352,6.26c-0.9,1.692-2.044,3.02-3.432,3.984s-2.8,1.604-4.232,1.916
		c-1.948,0.388-4.772,0.58-8.464,0.58h-5.32v15.248L219.408,132.648L219.408,132.648z M227.572,99.064v11.472h4.468
		c3.216,0,5.368-0.212,6.452-0.636s1.936-1.084,2.552-1.984s0.924-1.948,0.924-3.144c0-1.472-0.432-2.684-1.296-3.64
		s-1.956-1.552-3.28-1.792c-0.976-0.184-2.932-0.276-5.872-0.276H227.572z"/>
	<path style="fill:#FDFEFF;" d="M255.42,112.684c0-4.116,0.616-7.572,1.848-10.368c0.92-2.06,2.172-3.908,3.764-5.544
		s3.332-2.848,5.224-3.64c2.52-1.068,5.424-1.6,8.712-1.6c5.956,0,10.72,1.848,14.296,5.544s5.364,8.832,5.364,15.412
		c0,6.524-1.772,11.632-5.32,15.316s-8.292,5.528-14.228,5.528c-6.012,0-10.792-1.832-14.34-5.5S255.42,119.12,255.42,112.684z
		 M263.832,112.412c0,4.576,1.056,8.048,3.172,10.408c2.116,2.364,4.796,3.544,8.052,3.544c3.252,0,5.924-1.172,8.012-3.516
		c2.088-2.344,3.128-5.86,3.128-10.548c0-4.632-1.016-8.088-3.048-10.368s-4.728-3.42-8.092-3.42s-6.076,1.152-8.136,3.46
		C264.86,104.28,263.832,107.76,263.832,112.412z"/>
	<path style="fill:#FDFEFF;" d="M301.028,132.648V92.224h17.18c4.32,0,7.46,0.364,9.416,1.088c1.956,0.728,3.524,2.016,4.7,3.876
		c1.176,1.856,1.764,3.98,1.764,6.368c0,3.032-0.892,5.536-2.676,7.512s-4.448,3.22-7.996,3.736c1.764,1.028,3.22,2.16,4.372,3.392
		c1.148,1.232,2.696,3.42,4.648,6.564l4.936,7.888h-9.76l-5.9-8.796c-2.096-3.144-3.528-5.124-4.3-5.944
		c-0.772-0.82-1.592-1.38-2.456-1.684s-2.232-0.456-4.108-0.456h-1.656v16.876h-8.164V132.648z M309.192,109.32h6.04
		c3.916,0,6.36-0.164,7.336-0.496s1.736-0.9,2.288-1.708s0.828-1.82,0.828-3.032c0-1.36-0.364-2.46-1.088-3.296
		c-0.728-0.836-1.752-1.364-3.076-1.584c-0.66-0.092-2.648-0.136-5.956-0.136h-6.368v10.252H309.192z"/>
	<path style="fill:#FDFEFF;" d="M350.884,132.648V99.064h-11.996v-6.84h32.124v6.84h-11.968v33.584H350.884z"/>
</g>
<rect x="184.84" y="211.512" style="fill:#70B1E1;" width="30.58" height="117.884"/>
<rect x="296.56" y="211.512" style="fill:#F1592F;" width="30.58" height="117.884"/>
<rect x="352.44" y="179.984" style="fill:#656D7A;" width="30.58" height="149.4"/>
<rect x="240.72" y="237.04" style="fill:#F5EA07;" width="30.58" height="92.36"/>
<rect x="129" y="266.72" style="fill:#F1592F;" width="30.58" height="62.676"/>
<g>
	<rect x="98.472" y="366.6" style="fill:#D2D2D4;" width="315.04" height="14.584"/>
	<rect x="98.472" y="407.68" style="fill:#D2D2D4;" width="315.04" height="14.584"/>
</g>
<g>
</g>
<g>
</g>
<g>
</g>
<g>
</g>
<g>
</g>
<g>
</g>
<g>
</g>
<g>
</g>
<g>
</g>
<g>
</g>
<g>
</g>
<g>
</g>
<g>
</g>
<g>
</g>
<g>
</g>
</svg>
